{"title":"The.Haunting.Of.Helena.2012 WEBRip XViD juggs","uid":8598498,"size":745076969,"categoryP":"video","categoryS":"movies","magnet":"?xt=urn:btih:5d02072af84ac55118d72533d7372f68ad0dfe0f&amp;dn=The.Haunting.Of.Helena.2012+WEBRip+XViD+juggs&amp;tr=udp%3A%2F%2Ftracker.openbittorrent.com%3A80&amp;tr=udp%3A%2F%2Fopen.demonii.com%3A1337&amp;tr=udp%3A%2F%2Ftracker.coppersurfer.tk%3A6969&amp;tr=udp%3A%2F%2Fexodus.desync.com%3A6969","seeders":14,"leechers":2,"uploader":"juggs99","files":3,"time":1371821622,"description":"Source : PHD(Thanks)\n &lt;a href=&quot;\nhttp://www.imdb.com/title/tt2378191/&quot; rel=&quot;nofollow&quot; target=&quot;_NEW&quot;&gt;\nhttp://www.imdb.com/title/tt2378191/&lt;/a&gt;\n\nFormat                                   : AVI\nFormat/Info                              : Audio Video Interleave\nFile size                                : 698 MiB\nDuration                                 : 1h 24mn\nOverall bit rate                         : 1 159 Kbps\nWriting library                          : VirtualDub build 32842/release\n\nVideo\nID                                       : 0\nFormat                                   : MPEG-4 Visual\nFormat profile                           : Advanced Simple@L5\nFormat settings, BVOP                    : 2\nFormat settings, QPel                    : No\nFormat settings, GMC                     : No warppoints\nFormat settings, Matrix                  : Default (H.263)\nMuxing mode                              : Packed bitstream\nCodec ID                                 : XVID\nCodec ID/Hint                            : XviD\nDuration                                 : 1h 24mn\nBit rate                                 : 1 022 Kbps\nWidth                                    : 640 pixels\nHeight                                   : 352 pixels\nDisplay aspect ratio                     : 16:9\nFrame rate                               : 25.000 fps\nColor space                              : YUV\nChroma subsampling                       : 4:2:0\nBit depth                                : 8 bits\nScan type                                : Progressive\nCompression mode                         : Lossy\nBits/(Pixel*Frame)                       : 0.181\nStream size                              : 615 MiB (88%)\nWriting library                          : XviD 1.2.1 (UTC 2008-12-04)\n\nAudio\nID                                       : 1\nFormat                                   : MPEG Audio\nFormat version                           : Version 1\nFormat profile                           : Layer 3\nCodec ID                                 : 55\nCodec ID/Hint                            : MP3\nDuration                                 : 1h 24mn\nBit rate mode                            : Constant\nBit rate                                 : 128 Kbps\nChannel(s)                               : 2 channels\nSampling rate                            : 44.1 KHz\nCompression mode                         : Lossy\nStream size                              : 77.1 MiB (11%)\nAlignment                                : Split accross interleaves\nInterleave, duration                     : 40 ms (1.00 video frame)\nInterleave, preload duration             : 500 ms\nWriting library                          : LAME3.99r\n\n &lt;a href=&quot;\nhttp://img845.imageshack.us/img845/5374/4h6k.png&quot; rel=&quot;nofollow&quot; target=&quot;_NEW&quot;&gt;\nhttp://img845.imageshack.us/img845/5374/4h6k.png&lt;/a&gt; &lt;a href=&quot;\nhttp://img22.imageshack.us/img22/5908/zdx.png&quot; rel=&quot;nofollow&quot; target=&quot;_NEW&quot;&gt;\nhttp://img22.imageshack.us/img22/5908/zdx.png&lt;/a&gt; &lt;a href=&quot;\nhttp://img402.imageshack.us/img402/6305/9wp.png&quot; rel=&quot;nofollow&quot; target=&quot;_NEW&quot;&gt;\nhttp://img402.imageshack.us/img402/6305/9wp.png&lt;/a&gt;","torrent":{"xt":"urn:btih:5d02072af84ac55118d72533d7372f68ad0dfe0f","amp;dn":"The.Haunting.Of.Helena.2012+WEBRip+XViD+juggs","amp;tr":["udp%3A%2F%2Ftracker.openbittorrent.com%3A80","udp%3A%2F%2Fopen.demonii.com%3A1337","udp%3A%2F%2Ftracker.coppersurfer.tk%3A6969","udp%3A%2F%2Fexodus.desync.com%3A6969"],"infoHash":"5d02072af84ac55118d72533d7372f68ad0dfe0f","infoHashBuffer":{"type":"Buffer","data":[93,2,7,42,248,74,197,81,24,215,37,51,215,55,47,104,173,13,254,15]},"announce":[],"urlList":[]}}